<?xml version="1.0" standalone="no"?>
<!DOCTYPE svg PUBLIC "-//W3C//DTD SVG 20010904//EN"
 "http://www.w3.org/TR/2001/REC-SVG-20010904/DTD/svg10.dtd">
<svg version="1.0" xmlns="http://www.w3.org/2000/svg"
 width="300.000000pt" height="300.000000pt" viewBox="0 0 300.000000 300.000000"
 preserveAspectRatio="xMidYMid meet">
<metadata>
Created by potrace 1.14, written by Peter Selinger 2001-2017
</metadata>
<g transform="translate(0.000000,300.000000) scale(0.100000,-0.100000)"
fill="#000000" stroke="none">
<path d="M383 2986 c-181 -44 -334 -202 -372 -384 -15 -74 -15 -2130 0 -2204
39 -187 200 -348 387 -387 74 -15 2130 -15 2204 0 187 39 348 200 387 387 15
74 15 2130 0 2204 -39 187 -200 348 -387 387 -80 17 -2149 14 -2219 -3z m867
-570 c89 -17 156 -44 220 -91 26 -19 50 -35 52 -35 3 0 22 13 43 30 57 45 140
81 224 96 103 18 181 18 209 -2 20 -14 22 -23 22 -114 0 -68 -4 -101 -12 -107
-7 -4 -58 -13 -114 -19 -119 -14 -191 -45 -223 -97 -20 -32 -21 -48 -21 -276
l0 -241 68 0 c104 0 112 -9 112 -130 0 -121 -8 -130 -112 -130 l-68 0 0 -244
c0 -235 1 -244 23 -277 35 -53 118 -90 219 -96 123 -8 128 -13 128 -128 0 -72
-4 -97 -16 -109 -34 -35 -269 -10 -362 38 -16 8 -50 31 -76 51 l-46 35 -48
-34 c-70 -50 -127 -76 -201 -92 -82 -17 -222 -19 -239 -2 -8 8 -12 47 -12 109
0 119 7 129 88 129 119 0 218 39 259 100 22 32 23 40 23 275 l0 243 -80 4
c-58 2 -84 7 -90 18 -5 8 -10 59 -10 112 0 119 8 128 112 128 l68 0 0 245 0
244 -32 36 c-17 20 -47 45 -67 55 -43 21 -135 40 -201 40 -25 0 -51 5 -58 12
-19 19 -16 202 4 222 20 20 109 21 214 2z"/>
</g>
</svg>
