<svg width="686" height="594" viewBox="0 0 686 594" fill="none" xmlns="http://www.w3.org/2000/svg">
<path d="M116.701 100.188L300 31.5L339.993 11.0639C371.59 -5.0815 409.375 -3.27469 439.287 15.8118L580.943 106.202C594.13 114.616 605.159 126.008 613.144 139.46L671.448 237.686C690.523 269.822 690.088 309.913 670.319 341.627L547.053 539.381C527.615 570.564 492.642 588.575 455.968 586.289L331.149 578.508C325.725 578.17 320.283 578.274 314.877 578.82L177.544 592.693C144.666 596.013 112.271 582.878 90.9903 557.597L24.2176 478.273C3.93734 454.181 -3.80928 421.943 3.3103 391.267L54.38 171.222C61.9504 138.603 85.3444 111.938 116.701 100.188Z" fill="#1E1E64"/>
</svg>
