<svg width="630" height="624" viewBox="0 0 630 624" fill="none" xmlns="http://www.w3.org/2000/svg">
<path d="M629.502 261.838L617.908 408.36C616.336 428.229 608.863 447.175 596.447 462.766L516.626 563.003C502.709 580.479 483.34 592.792 461.609 597.978L367.517 620.43C347.466 625.215 326.426 623.686 307.278 616.052L89.6596 529.304C61.8349 518.213 40.4476 495.232 31.3803 466.684L4.9753 383.547C-1.37741 363.545 -1.27642 342.052 5.26397 322.111L68.3742 129.694C76.9676 103.493 95.9981 82.0038 120.967 70.3052L219.818 23.9913C230.002 19.2197 240.919 16.2003 252.108 15.0602L392.948 0.709154C426.218 -2.68098 458.981 10.7848 480.252 36.5917L606.98 190.348C623.472 210.357 631.547 235.989 629.502 261.838Z" fill="#F0B842"/>
</svg>
