<svg width="50" height="50" fill="none" xmlns="http://www.w3.org/2000/svg"><rect width="50" height="50" rx="10" fill="#21209C"/><path d="M32 12.855v-2.343a.713.713 0 00-.703-.703c-1.934-.059-4.57 0-6.797 2.168-2.227-2.168-4.805-2.227-6.855-2.168-.352 0-.645.293-.645.703v2.285c0 .41.293.703.703.703 1.524 0 4.922.234 4.922 2.871v6.504h-2.11a.713.713 0 00-.703.703v2.344c0 .41.293.703.704.703h2.109v6.563c0 2.636-3.34 2.87-4.922 2.812a.713.713 0 00-.703.703v2.344c0 .41.293.703.645.703 1.933.059 4.57 0 6.855-2.168 2.168 2.168 4.746 2.227 6.797 2.168a.713.713 0 00.703-.703v-2.285c0-.41-.352-.703-.762-.703-1.523 0-4.863-.235-4.863-2.871v-6.563h2.11a.713.713 0 00.703-.703v-2.344c0-.351-.352-.703-.704-.703h-2.109v-6.504c0-2.637 3.281-2.871 4.863-2.812.41 0 .762-.352.762-.704z" fill="#fff"/></svg>